<?xml version="1.0" encoding="UTF-8"?>
<svg id="Capa_1" xmlns="http://www.w3.org/2000/svg" version="1.1" viewBox="0 0 1920 284.12">
  <!-- Generator: Adobe Illustrator 30.0.0, SVG Export Plug-In . SVG Version: 2.1.1 Build 123)  -->
  <defs>
    <style>
      .st0 {
        fill: #1e0000;
      }
    </style>
  </defs>
  <path class="st0" d="M139.43,231.85c-12.1,0-22.86-2.7-32.26-8.09-9.41-5.4-16.8-12.88-22.2-22.45-5.4-9.57-8.1-20.65-8.1-33.24s2.7-23.67,8.1-33.24c5.4-9.57,12.79-17.05,22.2-22.45,9.4-5.4,20.15-8.1,32.26-8.1,15.04,0,27.72,3.92,38.02,11.78,10.3,7.85,16.84,18.56,19.63,32.14h-27.97c-1.64-6.54-5.15-11.65-10.55-15.33-5.4-3.68-11.86-5.52-19.38-5.52-6.05,0-11.74,1.59-17.05,4.78-5.32,3.19-9.57,7.77-12.76,13.74-3.19,5.97-4.78,13.37-4.78,22.2s1.59,16.07,4.78,22.2c3.19,6.13,7.44,10.75,12.76,13.86,5.31,3.11,11,4.66,17.05,4.66,7.52,0,13.98-1.8,19.38-5.4,5.4-3.59,8.91-8.75,10.55-15.45h27.97c-2.62,13.09-9.12,23.67-19.5,31.77-10.39,8.1-23.1,12.14-38.15,12.14Z"/>
  <path class="st0" d="M253.74,231.85c-9.49,0-17.54-1.68-24.16-5.03-6.62-3.35-11.61-7.81-14.96-13.37-3.35-5.56-5.03-11.61-5.03-18.15,0-12.92,4.66-22.9,13.98-29.93,9.32-7.03,21.59-10.55,36.8-10.55,6.87,0,13,.53,18.4,1.59,5.4,1.07,9.81,2.17,13.25,3.31v-5.64c0-9.48-2.58-16.52-7.73-21.1-5.15-4.58-11.98-6.87-20.48-6.87-6.38,0-12.02,1.31-16.93,3.92-4.91,2.62-8.01,7.2-9.32,13.74h-26c.98-8.83,3.96-16.15,8.95-21.96,4.99-5.8,11.24-10.18,18.77-13.12,7.52-2.94,15.7-4.42,24.53-4.42,17.66,0,31.28,4.42,40.85,13.25,9.57,8.83,14.35,21.02,14.35,36.55v31.89c0,6.22.37,10.71,1.1,13.49.74,2.78,1.96,4.54,3.68,5.27s4.05,1.1,6.99,1.1h1.23v23.06h-5.89c-8.18,0-15.01-1.23-20.48-3.68-5.48-2.45-9.28-7.36-11.41-14.72-3.92,6.05-9.24,11.12-15.95,15.21-6.71,4.09-14.88,6.13-24.53,6.13ZM259.14,210.75c6.21,0,11.53-1.51,15.95-4.54,4.41-3.02,7.97-7.03,10.67-12.02,2.7-4.99,4.37-10.34,5.03-16.07-3.6-.98-7.85-1.96-12.76-2.94-4.91-.98-9.9-1.47-14.96-1.47-8.67,0-15.21,1.8-19.62,5.4-4.42,3.6-6.62,8.34-6.62,14.23,0,5.07,1.96,9.24,5.89,12.51,3.93,3.27,9.4,4.91,16.44,4.91Z"/>
  <path class="st0" d="M405.1,231.85c-12.1,0-22.86-2.7-32.26-8.09-9.41-5.4-16.8-12.88-22.2-22.45-5.4-9.57-8.1-20.65-8.1-33.24s2.7-23.67,8.1-33.24c5.4-9.57,12.79-17.05,22.2-22.45,9.4-5.4,20.15-8.1,32.26-8.1,15.04,0,27.72,3.92,38.02,11.78s16.84,18.56,19.63,32.14h-27.97c-1.64-6.54-5.15-11.65-10.55-15.33-5.4-3.68-11.86-5.52-19.38-5.52-6.05,0-11.74,1.59-17.05,4.78-5.32,3.19-9.57,7.77-12.76,13.74-3.19,5.97-4.78,13.37-4.78,22.2s1.59,16.07,4.78,22.2c3.19,6.13,7.44,10.75,12.76,13.86,5.31,3.11,11,4.66,17.05,4.66,7.52,0,13.98-1.8,19.38-5.4,5.4-3.59,8.91-8.75,10.55-15.45h27.97c-2.62,13.09-9.12,23.67-19.5,31.77-10.39,8.1-23.1,12.14-38.15,12.14Z"/>
  <path class="st0" d="M519.41,231.85c-9.49,0-17.54-1.68-24.16-5.03-6.62-3.35-11.61-7.81-14.96-13.37-3.35-5.56-5.03-11.61-5.03-18.15,0-12.92,4.66-22.9,13.98-29.93,9.32-7.03,21.59-10.55,36.8-10.55,6.87,0,13,.53,18.4,1.59,5.4,1.07,9.81,2.17,13.25,3.31v-5.64c0-9.48-2.58-16.52-7.73-21.1-5.15-4.58-11.98-6.87-20.48-6.87-6.38,0-12.02,1.31-16.93,3.92-4.91,2.62-8.01,7.2-9.32,13.74h-26c.98-8.83,3.96-16.15,8.95-21.96,4.99-5.8,11.24-10.18,18.77-13.12,7.52-2.94,15.7-4.42,24.53-4.42,17.66,0,31.28,4.42,40.85,13.25,9.57,8.83,14.35,21.02,14.35,36.55v31.89c0,6.22.37,10.71,1.1,13.49.74,2.78,1.96,4.54,3.68,5.27s4.05,1.1,6.99,1.1h1.23v23.06h-5.89c-8.18,0-15.01-1.23-20.48-3.68-5.48-2.45-9.28-7.36-11.41-14.72-3.92,6.05-9.24,11.12-15.95,15.21-6.71,4.09-14.88,6.13-24.53,6.13ZM524.81,210.75c6.21,0,11.53-1.51,15.95-4.54,4.41-3.02,7.97-7.03,10.67-12.02,2.7-4.99,4.37-10.34,5.03-16.07-3.6-.98-7.85-1.96-12.76-2.94-4.91-.98-9.9-1.47-14.96-1.47-8.67,0-15.21,1.8-19.62,5.4-4.42,3.6-6.62,8.34-6.62,14.23,0,5.07,1.96,9.24,5.89,12.51,3.93,3.27,9.4,4.91,16.44,4.91Z"/>
  <path class="st0" d="M672.49,231.85c-12.1,0-22.98-2.66-32.63-7.97-9.65-5.31-17.29-12.79-22.94-22.45-5.64-9.65-8.46-20.77-8.46-33.36s2.82-23.92,8.46-33.49c5.64-9.57,13.33-17.01,23.06-22.32,9.73-5.31,20.56-7.97,32.5-7.97s23.18,2.66,32.75,7.97c9.57,5.32,17.17,12.76,22.81,22.32,5.64,9.57,8.46,20.73,8.46,33.49s-2.82,23.72-8.46,33.36c-5.64,9.65-13.29,17.13-22.94,22.45-9.65,5.31-20.53,7.97-32.63,7.97ZM672.49,208.54c6.54,0,12.55-1.51,18.03-4.54,5.48-3.02,9.85-7.52,13.12-13.49,3.27-5.97,4.91-13.45,4.91-22.45s-1.64-16.47-4.91-22.45c-3.27-5.97-7.65-10.46-13.12-13.49-5.48-3.02-11.41-4.54-17.79-4.54s-12.55,1.51-18.03,4.54c-5.48,3.03-9.9,7.52-13.25,13.49-3.35,5.97-5.03,13.45-5.03,22.45s1.63,16.48,4.91,22.45c3.27,5.97,7.64,10.47,13.12,13.49,5.48,3.03,11.49,4.54,18.03,4.54Z"/>
  <path class="st0" d="M813.3,230.38c-11.78,0-22.29-2.29-31.52-6.87-9.24-4.58-16.44-11-21.59-19.26-5.15-8.26-7.73-17.87-7.73-28.82,0-16.84,5.35-29.84,16.07-39,10.71-9.16,25.14-13.74,43.3-13.74h7.36l1.96,18.89h-6.87c-10.63,0-19.26,2.94-25.88,8.83-6.62,5.89-9.94,13.98-9.94,24.29,0,6.87,1.43,12.76,4.29,17.66,2.86,4.91,6.95,8.67,12.27,11.29,5.31,2.62,11.65,3.92,19.01,3.92,8.01,0,15.21-1.59,21.59-4.78,6.38-3.19,11.98-7.52,16.8-13,4.82-5.48,8.87-11.73,12.14-18.77,3.27-7.03,5.85-14.27,7.73-21.71,1.88-7.44,3.07-14.6,3.56-21.47h24.04c-.66,9.81-2.5,19.62-5.52,29.44-3.03,9.81-7.08,19.1-12.14,27.84-5.07,8.75-11.04,16.52-17.91,23.31-6.87,6.79-14.6,12.14-23.18,16.07-8.59,3.92-17.87,5.89-27.84,5.89ZM877.82,228.9l-110.39-151.36v-20.36h101.81v22.81h-85.62l10.55-7.11,112.85,156.02h-29.19Z"/>
  <path class="st0" d="M964.91,231.85c-9.49,0-17.54-1.68-24.16-5.03-6.62-3.35-11.61-7.81-14.96-13.37-3.35-5.56-5.03-11.61-5.03-18.15,0-12.92,4.66-22.9,13.98-29.93,9.32-7.03,21.59-10.55,36.8-10.55,6.87,0,13,.53,18.4,1.59,5.4,1.07,9.81,2.17,13.25,3.31v-5.64c0-9.48-2.58-16.52-7.73-21.1-5.15-4.58-11.98-6.87-20.48-6.87-6.38,0-12.02,1.31-16.93,3.92-4.91,2.62-8.01,7.2-9.32,13.74h-26c.98-8.83,3.96-16.15,8.95-21.96,4.99-5.8,11.24-10.18,18.77-13.12,7.52-2.94,15.7-4.42,24.53-4.42,17.66,0,31.28,4.42,40.85,13.25,9.57,8.83,14.35,21.02,14.35,36.55v31.89c0,6.22.37,10.71,1.1,13.49.74,2.78,1.96,4.54,3.68,5.27s4.05,1.1,6.99,1.1h1.22v23.06h-5.89c-8.18,0-15.01-1.23-20.48-3.68-5.48-2.45-9.28-7.36-11.41-14.72-3.92,6.05-9.24,11.12-15.95,15.21-6.71,4.09-14.88,6.13-24.53,6.13ZM970.3,210.75c6.21,0,11.53-1.51,15.95-4.54,4.41-3.02,7.97-7.03,10.67-12.02,2.7-4.99,4.37-10.34,5.03-16.07-3.6-.98-7.85-1.96-12.76-2.94-4.91-.98-9.9-1.47-14.96-1.47-8.67,0-15.21,1.8-19.62,5.4-4.42,3.6-6.62,8.34-6.62,14.23,0,5.07,1.96,9.24,5.89,12.51,3.93,3.27,9.4,4.91,16.44,4.91Z"/>
  <path class="st0" d="M1079.22,228.9l-45.38-121.68h28.21l33.36,95.92,33.12-95.92h28.21l-45.38,121.68h-32.14Z"/>
  <path class="st0" d="M1224.45,231.85c-12.1,0-22.98-2.66-32.63-7.97-9.65-5.31-17.3-12.79-22.94-22.45-5.64-9.65-8.46-20.77-8.46-33.36s2.82-23.92,8.46-33.49c5.64-9.57,13.33-17.01,23.06-22.32,9.73-5.31,20.56-7.97,32.51-7.97s23.18,2.66,32.75,7.97c9.57,5.32,17.17,12.76,22.81,22.32,5.64,9.57,8.46,20.73,8.46,33.49s-2.82,23.72-8.46,33.36c-5.64,9.65-13.29,17.13-22.94,22.45-9.65,5.31-20.53,7.97-32.63,7.97ZM1224.45,208.54c6.54,0,12.55-1.51,18.03-4.54,5.48-3.02,9.85-7.52,13.13-13.49,3.27-5.97,4.91-13.45,4.91-22.45s-1.64-16.47-4.91-22.45c-3.28-5.97-7.65-10.46-13.13-13.49-5.48-3.02-11.41-4.54-17.79-4.54s-12.55,1.51-18.03,4.54c-5.48,3.03-9.9,7.52-13.25,13.49-3.36,5.97-5.03,13.45-5.03,22.45s1.63,16.48,4.91,22.45c3.27,5.97,7.64,10.47,13.12,13.49,5.48,3.03,11.49,4.54,18.03,4.54Z"/>
  <path class="st0" d="M1364.03,231.85c-12.1,0-22.86-2.7-32.26-8.09-9.41-5.4-16.8-12.88-22.2-22.45-5.4-9.57-8.1-20.65-8.1-33.24s2.7-23.67,8.1-33.24c5.4-9.57,12.79-17.05,22.2-22.45,9.4-5.4,20.15-8.1,32.26-8.1,15.05,0,27.72,3.92,38.02,11.78,10.3,7.85,16.84,18.56,19.62,32.14h-27.97c-1.64-6.54-5.15-11.65-10.55-15.33-5.4-3.68-11.86-5.52-19.38-5.52-6.05,0-11.74,1.59-17.05,4.78-5.32,3.19-9.57,7.77-12.76,13.74-3.19,5.97-4.78,13.37-4.78,22.2s1.59,16.07,4.78,22.2c3.19,6.13,7.44,10.75,12.76,13.86,5.31,3.11,11,4.66,17.05,4.66,7.52,0,13.98-1.8,19.38-5.4,5.4-3.59,8.91-8.75,10.55-15.45h27.97c-2.62,13.09-9.12,23.67-19.5,31.77-10.39,8.1-23.1,12.14-38.15,12.14Z"/>
  <path class="st0" d="M1478.35,231.85c-9.49,0-17.54-1.68-24.17-5.03-6.62-3.35-11.61-7.81-14.96-13.37-3.35-5.56-5.03-11.61-5.03-18.15,0-12.92,4.66-22.9,13.98-29.93,9.32-7.03,21.59-10.55,36.8-10.55,6.87,0,13,.53,18.4,1.59,5.4,1.07,9.81,2.17,13.25,3.31v-5.64c0-9.48-2.58-16.52-7.73-21.1-5.15-4.58-11.98-6.87-20.48-6.87-6.38,0-12.02,1.31-16.93,3.92-4.91,2.62-8.02,7.2-9.32,13.74h-26c.98-8.83,3.96-16.15,8.95-21.96,4.99-5.8,11.24-10.18,18.77-13.12,7.52-2.94,15.7-4.42,24.53-4.42,17.66,0,31.28,4.42,40.84,13.25,9.57,8.83,14.35,21.02,14.35,36.55v31.89c0,6.22.37,10.71,1.1,13.49.74,2.78,1.96,4.54,3.68,5.27s4.05,1.1,6.99,1.1h1.22v23.06h-5.89c-8.18,0-15.01-1.23-20.48-3.68-5.48-2.45-9.28-7.36-11.41-14.72-3.93,6.05-9.24,11.12-15.95,15.21-6.71,4.09-14.88,6.13-24.53,6.13ZM1483.74,210.75c6.21,0,11.53-1.51,15.95-4.54,4.42-3.02,7.97-7.03,10.67-12.02,2.7-4.99,4.37-10.34,5.03-16.07-3.6-.98-7.85-1.96-12.76-2.94-4.91-.98-9.9-1.47-14.97-1.47-8.67,0-15.21,1.8-19.62,5.4-4.42,3.6-6.62,8.34-6.62,14.23,0,5.07,1.96,9.24,5.89,12.51,3.92,3.27,9.4,4.91,16.43,4.91Z"/>
  <path class="st0" d="M1627.26,231.85c-11.62,0-21.96-2.78-31.03-8.34-9.08-5.56-16.19-13.2-21.34-22.94-5.15-9.73-7.73-20.65-7.73-32.75s2.58-23.18,7.73-32.75c5.15-9.57,12.26-17.09,21.34-22.57,9.08-5.48,19.5-8.22,31.28-8.22,9.48,0,17.82,1.88,25.02,5.64,7.19,3.76,12.84,8.92,16.93,15.46V52.28h26.98v176.63h-26.98v-18.64c-3.76,5.56-9.08,10.55-15.95,14.97-6.87,4.41-15.62,6.62-26.25,6.62ZM1632.16,208.3c7.36,0,13.86-1.72,19.5-5.15,5.64-3.43,10.06-8.18,13.25-14.23,3.19-6.05,4.78-13,4.78-20.85s-1.59-15.04-4.78-21.1c-3.19-6.05-7.6-10.75-13.25-14.11-5.64-3.35-12.14-5.03-19.5-5.03s-13.61,1.68-19.26,5.03c-5.64,3.35-10.1,8.06-13.37,14.11-3.27,6.05-4.91,13-4.91,20.85s1.63,15.05,4.91,21.1c3.27,6.05,7.73,10.79,13.37,14.23,5.64,3.43,12.06,5.15,19.26,5.15Z"/>
  <path class="st0" d="M1779.1,231.85c-12.1,0-22.98-2.66-32.63-7.97-9.65-5.31-17.3-12.79-22.94-22.45-5.64-9.65-8.46-20.77-8.46-33.36s2.82-23.92,8.46-33.49c5.64-9.57,13.33-17.01,23.06-22.32,9.73-5.31,20.56-7.97,32.51-7.97s23.18,2.66,32.75,7.97c9.57,5.32,17.17,12.76,22.81,22.32,5.64,9.57,8.46,20.73,8.46,33.49s-2.82,23.72-8.46,33.36c-5.64,9.65-13.29,17.13-22.94,22.45-9.65,5.31-20.53,7.97-32.63,7.97ZM1779.1,208.54c6.54,0,12.55-1.51,18.03-4.54,5.48-3.02,9.85-7.52,13.13-13.49,3.27-5.97,4.91-13.45,4.91-22.45s-1.64-16.47-4.91-22.45c-3.28-5.97-7.65-10.46-13.13-13.49-5.48-3.02-11.41-4.54-17.79-4.54s-12.55,1.51-18.03,4.54c-5.48,3.03-9.9,7.52-13.25,13.49-3.36,5.97-5.03,13.45-5.03,22.45s1.63,16.48,4.91,22.45c3.27,5.97,7.64,10.47,13.12,13.49,5.48,3.03,11.49,4.54,18.03,4.54Z"/>
</svg>